<svg width="72" height="70" viewBox="0 0 72 70" fill="none" xmlns="http://www.w3.org/2000/svg">
<line x1="48.5" y1="70" x2="48.5" y2="23" stroke="#343434" stroke-width="11"/>
<path fill-rule="evenodd" clip-rule="evenodd" d="M32.5 65C50.4493 65 65 50.4493 65 32.5C65 14.5507 50.4493 0 32.5 0C14.5507 0 0 14.5507 0 32.5C0 50.4493 14.5507 65 32.5 65ZM32 55C44.1503 55 54 45.1503 54 33C54 20.8497 44.1503 11 32 11C19.8497 11 10 20.8497 10 33C10 45.1503 19.8497 55 32 55Z" fill="#686B72"/>
<line x1="24" y1="28.5" x2="72" y2="28.5" stroke="#343434" stroke-width="11"/>
</svg>
